:version 1.10
:name ASF
:units
  mass 1
  length 1
  angle deg
:documentation
  ASF file generated by Kaydara
:root
  axis xyz
  order  tx ty tz rx ry rz
  position 0 0 0
  orientation 0 0 0
:bonedata
  begin
    id 1
    name RightUpLegDummy
    direction -0.718183 -0.695806 0.00816078
    length 4.904
    axis 0 0 0 xyz
  end
  begin
    id 2
    name RightUpLeg
    direction 3.53373e-006 -0.995788 0.0916898
    length 17.4976
    axis -3.49089 -0.000906625 0.000286804 xyz
    dof rx ry rz
  end
  begin
    id 3
    name RightLeg
    direction 0.00371092 -0.995096 -0.0988419
    length 16.5821
    axis 3.68512 0.0193738 -0.131023 xyz
    dof rx ry rz
  end
  begin
    id 4
    name RightFoot
    direction 0.00079151 -0.46099 0.887405
    length 3.77069
    axis 4.81691e-005 -0.120479 -0.188788 xyz
    dof rx ry rz
  end
  begin
    id 5
    name RightToes
    direction 0 0 0
    length 0
    axis 0 0 0 xyz
    dof rx ry rz
  end
  begin
    id 6
    name SpineDummy
    direction 8.3039e-015 1 4.57515e-016
    length 4.6813
    axis 0 0 0 xyz
  end
  begin
    id 7
    name Spine
    direction -3.15643e-008 0.999988 0.00495137
    length 10.1015
    axis -0.001389 0.000121418 2.40972e-006 xyz
    dof rx ry rz
  end
  begin
    id 8
    name Spine1
    direction 0 0 0
    length 0
    axis -0.001389 0.000121451 1.30017e-006 xyz
    dof rx ry rz
  end
  begin
    id 9
    name HEadDummy
    direction -1.99912e-008 0.999999 0.00127422
    length 3.43865
    axis -0.001389 0.000121451 1.30017e-006 xyz
  end
  begin
    id 10
    name HEad
    direction 0 0 0
    length 0
    axis 0 0 0 xyz
    dof rx ry rz
  end
  begin
    id 11
    name LeftShoulder1Dummy
    direction 0.998891 -0.0402509 -0.0244456
    length 3.5433
    axis -0.001389 0.000121451 1.30017e-006 xyz
  end
  begin
    id 12
    name LeftShoulder1
    direction 0.99951 -0.000327763 0.0313091
    length 4.05031
    axis -0.001389 0.000121451 1.30017e-006 xyz
    dof rx ry rz
  end
  begin
    id 13
    name LeftArm
    direction 0.998561 -0.00100056 -0.0536182
    length 10.3537
    axis -23.1894 0.134784 0.967509 xyz
    dof rx ry rz
  end
  begin
    id 14
    name LeftForeArm
    direction 0.998903 0.00866432 0.046012
    length 8.70632
    axis -9.91835 -0.06569 -0.177794 xyz
    dof rx ry rz
  end
  begin
    id 15
    name LeftHand
    direction 0 0 0
    length 0
    axis 0 0 0 xyz
    dof rx ry rz
  end
  begin
    id 16
    name RightShoulderDummy
    direction -0.998891 -0.0402509 -0.0244414
    length 3.5433
    axis -0.001389 0.000121451 1.30017e-006 xyz
  end
  begin
    id 17
    name RightShoulder
    direction -0.99951 -0.000327807 0.0313133
    length 4.05031
    axis 0.215806 0.000203643 -0.0068026 xyz
    dof rx ry rz
  end
  begin
    id 18
    name RightArm
    direction -0.998573 -0.000999564 -0.053403
    length 10.3947
    axis -23.2009 -0.134239 -0.964101 xyz
    dof rx ry rz
  end
  begin
    id 19
    name RightForeArm
    direction -0.998898 0.00868028 0.0461306
    length 8.68355
    axis -9.92322 0.0658061 0.178868 xyz
    dof rx ry rz
  end
  begin
    id 20
    name RightHand
    direction 0 0 0
    length 0
    axis 0 0 0 xyz
    dof rx ry rz
  end
  begin
    id 21
    name LeftUpLegDummy
    direction 0.718183 -0.695806 0.00816078
    length 4.904
    axis 0 0 0 xyz
  end
  begin
    id 22
    name LeftUpLeg
    direction -6.81752e-006 -0.995793 0.0916337
    length 17.4976
    axis -3.48766 0.00143442 -0.000524262 xyz
    dof rx ry rz
  end
  begin
    id 23
    name LeftLeg
    direction -0.00601358 -0.995091 -0.0987824
    length 16.5821
    axis 3.68178 -0.00654042 -0.000285133 xyz
    dof rx ry rz
  end
  begin
    id 24
    name LeftFoot
    direction -0.00417578 -0.460984 0.887399
    length 3.77069
    axis 1.87233e-006 4.66016e-005 -8.6538e-006 xyz
    dof rx ry rz
  end
  begin
    id 25
    name LeftToes
    direction 0 0 0
    length 0
    axis 0 0 0 xyz
    dof rx ry rz
  end
:hierarchy
  begin
    root RightUpLegDummy SpineDummy LeftUpLegDummy
    RightUpLegDummy RightUpLeg
    RightUpLeg RightLeg
    RightLeg RightFoot
    RightFoot RightToes
    SpineDummy Spine
    Spine Spine1
    Spine1 HEadDummy LeftShoulder1Dummy RightShoulderDummy
    HEadDummy HEad
    LeftShoulder1Dummy LeftShoulder1
    LeftShoulder1 LeftArm
    LeftArm LeftForeArm
    LeftForeArm LeftHand
    RightShoulderDummy RightShoulder
    RightShoulder RightArm
    RightArm RightForeArm
    RightForeArm RightHand
    LeftUpLegDummy LeftUpLeg
    LeftUpLeg LeftLeg
    LeftLeg LeftFoot
    LeftFoot LeftToes
  end

:SAMPLES-PER-SECOND 30
:FULLY-SPECIFIED
:DEGREES
1
root  13.8939 40.7246 8.23172 81.0416 88.2593 82.2582
RightUpLeg  -2.00219 -10.5262 -9.49219
RightLeg  8.00303 -5.27936 2.29658
RightFoot  -1.59591 -0.119538 1.37693
RightToes  0.000481921 0.542163 -0.142578
Spine  1.23991 -0.889377 -3.18761
Spine1  2.13476 -1.91 5.17704
HEad  20.3681 0.102871 -0.516996
LeftShoulder1  6.4476 -9.64976 -42.5746
LeftArm  -2.65911 19.8302 -32.8018
LeftForeArm  -179.836 -56.9288 -165.514
LeftHand  -0.25398 0.0180481 5.50724
RightShoulder  3.05131 5.07698 29.6185
RightArm  0.20759 -25.7782 38.606
RightForeArm  -177.653 54.3502 166.97
RightHand  -0.651331 1.85192 -10.6295
LeftUpLeg  0.804337 6.36125 4.52086
LeftLeg  3.05923 17.3173 -3.74782
LeftFoot  -0.0727939 0.252819 -2.56028
LeftToes  1.06247e-005 4.65869e-005 -8.65511e-006
2
root  13.8946 40.7208 8.23386 76.7271 88.1687 78.0104
RightUpLeg  -2.01797 -10.583 -9.55222
RightLeg  8.13195 -5.02336 2.26297
RightFoot  -1.6942 -0.123502 1.43843
RightToes  0.000481921 0.542163 -0.142578
Spine  1.40313 -0.87142 -3.18933
Spine1  2.05718 -1.8704 5.06393
HEad  20.3715 0.0985036 -0.471437
LeftShoulder1  6.43762 -9.63629 -42.5507
LeftArm  -2.68106 19.8997 -32.7606
LeftForeArm  -179.853 -56.8844 -165.536
LeftHand  -0.25398 0.0180481 5.50724
RightShoulder  3.05237 5.0766 29.5844
RightArm  0.249637 -25.8038 38.5666
RightForeArm  -177.463 54.3151 167
RightHand  -0.632194 1.7409 -10.4713
LeftUpLeg  0.923478 6.32951 4.462
LeftLeg  3.0178 17.4709 -3.74914
LeftFoot  -0.083051 0.254368 -2.58438
LeftToes  1.06247e-005 4.65869e-005 -8.65511e-006
3
root  13.8945 40.7139 8.24155 72.0262 88.0289 73.4174
RightUpLeg  -2.06626 -10.6625 -9.61502
RightLeg  8.39414 -4.70163 2.16164
RightFoot  -1.86674 -0.126915 1.4914
RightToes  0.000481921 0.542163 -0.142578
Spine  1.65781 -0.85893 -3.39167
Spine1  1.94957 -1.87434 5.13785
HEad  20.386 0.0861307 -0.514864
LeftShoulder1  6.47798 -9.68298 -42.6736
LeftArm  -2.78646 20.0432 -32.6
LeftForeArm  -179.72 -56.7835 -165.601
LeftHand  -0.25398 0.0180481 5.50724
RightShoulder  3.06708 5.10437 29.6517
RightArm  0.485386 -25.8067 38.3763
RightForeArm  -177.331 54.2146 167.057
RightHand  -0.595546 1.55371 -10.127
LeftUpLeg  1.09469 6.31023 4.39482
LeftLeg  2.97411 17.6344 -3.77631
LeftFoot  -0.103498 0.255796 -2.6066
LeftToes  1.06247e-005 4.65869e-005 -8.65511e-006
4
root  13.8841 40.7053 8.25289 72.484 87.9616 73.9374
RightUpLeg  -2.1643 -10.7289 -9.6268
RightLeg  8.69622 -4.6037 2.02181
RightFoot  -2.05825 -0.127736 1.50414
RightToes  0.000481921 0.542163 -0.142578
Spine  1.91622 -0.941111 -3.77009
Spine1  1.8569 -2.03067 5.48126
HEad  20.3956 0.145126 -0.770562
LeftShoulder1  6.54918 -9.75257 -42.9326
LeftArm  -2.94324 20.1868 -32.421
LeftForeArm  -179.648 -56.6876 -165.657
LeftHand  -0.25398 0.0180481 5.50724
RightShoulder  3.10325 5.19026 29.7177
RightArm  0.749438 -25.7928 38.2854
RightForeArm  -177.92 54.2881 166.978
RightHand  -0.599339 1.4933 -10.2706
LeftUpLeg  1.10837 6.31504 4.36111
LeftLeg  3.05952 17.6172 -3.78215
LeftFoot  -0.125914 0.255047 -2.59495
LeftToes  1.06247e-005 4.65869e-005 -8.65511e-006
5
root  13.8673 40.6974 8.26768 76.9218 87.9288 78.3676
RightUpLeg  -2.29655 -10.8202 -9.64358
RightLeg  8.96957 -4.64413 1.88781
RightFoot  -2.29459 -0.134059 1.60224
RightToes  0.000481921 0.542163 -0.142578
Spine  2.24695 -1.08167 -4.12443
Spine1  1.64869 -2.23263 5.75975
HEad  20.3846 0.2261 -1.04608
LeftShoulder1  6.54485 -9.73033 -42.9784
LeftArm  -2.93913 20.2445 -32.4343
LeftForeArm  -179.738 -56.671 -165.659
LeftHand  -0.25398 0.0180481 5.50724
RightShoulder  3.09633 5.19423 29.6197
RightArm  0.772988 -25.956 38.4078
RightForeArm  -178.381 54.3858 166.898
RightHand  -0.622626 1.52233 -10.6218
LeftUpLeg  0.997818 6.2677 4.28348
LeftLeg  3.15213 17.5501 -3.7383
LeftFoot  -0.0949882 0.253054 -2.56394
LeftToes  1.06247e-005 4.65869e-005 -8.65511e-006
6
root  13.8594 40.6934 8.29142 85.2074 87.8626 86.599
RightUpLeg  -2.37794 -10.9585 -9.71258
RightLeg  9.15816 -4.78272 1.77713
RightFoot  -2.59041 -0.151627 1.87482
RightToes  0.000481921 0.542163 -0.142578
Spine  2.55711 -1.2382 -4.57825
Spine1  1.38051 -2.44291 6.01467
HEad  20.3727 0.307196 -1.10923
LeftShoulder1  6.45763 -9.63097 -42.7098
LeftArm  -2.76719 20.2428 -32.6701
LeftForeArm  -179.654 -56.7064 -165.647
LeftHand  -0.25398 0.0180481 5.50724
RightShoulder  3.05182 5.06909 29.6201
RightArm  0.708052 -26.2231 38.4268
RightForeArm  -177.79 54.1799 167.038
RightHand  -0.600666 1.52118 -10.2537
LeftUpLeg  0.895343 6.1463 4.13639
LeftLeg  3.08051 17.422 -3.69386
LeftFoot  0.0549922 0.247667 -2.48792
LeftToes  1.06247e-005 4.65869e-005 -8.65511e-006
7
root  13.8617 40.6934 8.33282 104.364 87.6572 105.597
RightUpLeg  -2.3784 -11.1263 -9.80496
RightLeg  9.23889 -5.41066 1.69959
RightFoot  -2.9009 -0.174814 2.23456
RightToes  0.000481921 0.542163 -0.142578
Spine  2.63967 -1.5615 -5.54664
Spine1  1.28105 -2.93731 6.86218
HEad  20.3214 0.531725 -1.09824
LeftShoulder1  6.39892 -9.5737 -42.4933
LeftArm  -2.71688 20.2994 -32.9278
LeftForeArm  -179.374 -56.7096 -165.668
LeftHand  -0.25398 0.0180481 5.50724
RightShoulder  3.0492 5.00045 29.8806
RightArm  0.757201 -26.2971 38.3044
RightForeArm  -177.23 53.9166 167.202
RightHand  -0.558051 1.58468 -9.46381
LeftUpLeg  0.589947 6.02769 4.01944
LeftLeg  3.05839 16.7376 -3.68271
LeftFoot  0.339794 0.23021 -2.27171
LeftToes  1.06247e-005 4.65869e-005 -8.65511e-006
8
root  13.8543 40.6954 8.40373 134.504 86.6579 135.305
RightUpLeg  -2.41513 -11.3406 -9.90587
RightLeg  9.24755 -7.06002 1.6834
RightFoot  -3.20038 -0.19522 2.55116
RightToes  0.000481921 0.542163 -0.142578
Spine  2.66798 -2.20966 -7.25035
Spine1  1.10383 -3.94865 8.75839
HEad  20.135 0.791508 -1.30253
LeftShoulder1  6.3836 -9.55076 -42.4638
LeftArm  -2.79203 20.4 -33.1862
LeftForeArm  -179.303 -56.7222 -165.667
LeftHand  -0.25398 0.0180481 5.50724
RightShoulder  3.02837 4.95178 29.8387
RightArm  0.537811 -26.4283 38.5895
RightForeArm  -178.043 53.9233 167.138
RightHand  -0.542278 1.60015 -9.18613
LeftUpLeg  -0.386428 5.90841 3.95477
LeftLeg  3.42315 14.9842 -3.65505
LeftFoot  0.769714 0.201755 -1.94685
LeftToes  1.06247e-005 4.65869e-005 -8.65511e-006
9
root  13.8173 40.6954 8.51301 156.598 84.0382 156.66
RightUpLeg  -2.53207 -11.632 -10.0369
RightLeg  9.26539 -9.94934 1.74016
RightFoot  -3.51949 -0.210242 2.78424
RightToes  0.000481921 0.542163 -0.142578
Spine  3.24637 -3.01456 -9.48876
Spine1  0.136386 -5.24195 11.5891
HEad  19.7776 0.406111 -1.67146
LeftShoulder1  6.31095 -9.46567 -42.2403
LeftArm  -2.52607 20.2906 -33.7848
LeftForeArm  -179.253 -56.8844 -165.585
LeftHand  -0.25398 0.0180481 5.50724
RightShoulder  2.83593 4.57631 29.099
RightArm  -0.565917 -27.3442 39.5251
RightForeArm  -179.675 53.6943 167.12
RightHand  -0.488907 1.06611 -8.91096
LeftUpLeg  -2.13648 5.73004 3.80257
LeftLeg  4.10648 12.0369 -3.51147
LeftFoot  1.37172 0.187792 -1.75964
LeftToes  1.06247e-005 4.65869e-005 -8.65511e-006
10
root  13.7396 40.6867 8.64982 166.943 80.0585 166.271
RightUpLeg  -2.4977 -11.9607 -10.1542
RightLeg  9.35324 -13.8242 1.84352
RightFoot  -3.81989 -0.217472 2.89561
RightToes  0.000481921 0.542163 -0.142578
Spine  4.7291 -3.54768 -11.5313
Spine1  -1.69625 -6.24477 14.6591
HEad  19.212 -1.38902 -1.90885
LeftShoulder1  6.22004 -9.42917 -41.7153
LeftArm  -1.67843 19.6002 -34.8514
LeftForeArm  -178.633 -57.2101 -165.46
LeftHand  -0.25398 0.0180481 5.50724
RightShoulder  2.58594 4.01466 28.3879
RightArm  -2.94258 -29.0401 40.7571
RightForeArm  178.276 52.7058 167.41
RightHand  -0.345236 -0.283685 -7.79686
LeftUpLeg  -4.17261 5.54627 3.51222
LeftLeg  4.82062 8.11847 -3.20195
LeftFoot  2.08922 0.202248 -1.82471
LeftToes  1.06247e-005 4.65869e-005 -8.65511e-006
11
root  13.6082 40.6787 8.79026 171.88 75.6821 170.811
RightUpLeg  -2.10236 -12.2463 -10.2279
RightLeg  9.34116 -17.9334 1.99816
RightFoot  -3.86532 -0.210781 2.79482
RightToes  0.000481921 0.542163 -0.142578
Spine  6.66664 -3.48216 -12.2034
Spine1  -3.3632 -6.44235 16.4163
HEad  18.2035 -4.92505 -1.74877
LeftShoulder1  6.27632 -9.67518 -41.2778
LeftArm  -0.49946 17.9371 -35.9064
LeftForeArm  -177.931 -57.6046 -165.303
LeftHand  -0.25398 0.0180481 5.50724
RightShoulder  2.57434 3.97162 28.423
RightArm  -7.02661 -30.2281 42.1004
RightForeArm  174.885 51.563 167.658
RightHand  -0.21204 -2.00576 -6.92286
LeftUpLeg  -5.76235 5.0371 3.18029
LeftLeg  5.04686 4.30662 -2.93705
LeftFoot  2.97779 0.214771 -1.85509
LeftToes  1.06247e-005 4.65869e-005 -8.65511e-006
12
root  13.4154 40.6744 8.91399 174.391 71.961 173.089
RightUpLeg  -1.77467 -12.4674 -10.2349
RightLeg  9.20175 -21.3621 2.18471
RightFoot  -3.57955 -0.196483 2.53948
RightToes  0.000481921 0.542163 -0.142578
Spine  8.17424 -2.78179 -10.5063
Spine1  -3.96385 -5.57459 15.3397
HEad  16.457 -10.2427 -0.726792
LeftShoulder1  6.46088 -10.1586 -40.9699
LeftArm  0.891994 14.9986 -36.5095
LeftForeArm  -178.176 -58.1361 -164.986
LeftHand  -0.25398 0.0180481 5.50724
RightShoulder  2.74004 4.44853 28.4559
RightArm  -12.6037 -29.153 43.0637
RightForeArm  171.194 51.2034 167.548
RightHand  -0.135343 -3.50417 -7.10681
LeftUpLeg  -6.84461 4.22378 2.87665
LeftLeg  4.65824 1.54313 -2.78297
LeftFoot  3.98762 0.202753 -1.68755
LeftToes  1.06247e-005 4.65869e-005 -8.65511e-006
13
root  13.1652 40.674 9.01322 175.89 69.3986 174.14
RightUpLeg  -2.05181 -12.6216 -10.18
RightLeg  9.01992 -23.6756 2.32491
RightFoot  -3.08794 -0.189064 2.32706
RightToes  0.000481921 0.542163 -0.142578
Spine  9.15962 -1.58867 -6.79769
Spine1  -4.08793 -3.68835 11.5321
HEad  14.0613 -16.9406 1.67039
LeftShoulder1  6.63165 -10.6685 -40.5072
LeftArm  2.51653 11.1438 -36.8737
LeftForeArm  -178.877 -58.9641 -164.446
LeftHand  -0.25398 0.0180481 5.50724
RightShoulder  2.6969 4.57502 27.3322
RightArm  -17.6322 -24.3358 41.6294
RightForeArm  170.236 52.4716 167.022
RightHand  -0.0654545 -4.83198 -6.08451
LeftUpLeg  -7.70102 3.30544 2.59256
LeftLeg  3.64095 0.159542 -2.71519
LeftFoot  5.01616 0.197336 -1.58389
LeftToes  1.06247e-005 4.65869e-005 -8.65511e-006
14
root  12.8387 40.6784 9.06548 176.864 68.2105 174.689
RightUpLeg  -2.77195 -12.6487 -10.0816
RightLeg  8.87945 -24.7291 2.37976
RightFoot  -2.43629 -0.183681 2.14471
RightToes  0.000481921 0.542163 -0.142578
Spine  10.5468 -0.2103 -2.1598
Spine1  -4.78747 -1.26307 6.30533
HEad  11.7077 -23.4071 4.8967
LeftShoulder1  6.85217 -11.2404 -40.2071
LeftArm  3.77474 7.76618 -37.0119
LeftForeArm  -179.019 -59.8298 -163.91
LeftHand  -0.25398 0.0180481 5.50724
RightShoulder  2.34702 4.03831 24.9638
RightArm  -20.4322 -13.9658 36.7021
RightForeArm  170.685 58.673 164.222
RightHand  -0.030706 -6.11801 -2.09896
LeftUpLeg  -8.17982 2.66264 2.42392
LeftLeg  2.23384 -0.0331269 -2.74689
LeftFoot  5.91524 0.223991 -1.71321
LeftToes  1.06247e-005 4.65869e-005 -8.65511e-006
15
root  12.3876 40.6766 9.03009 176.868 69.2652 174.863
RightUpLeg  -3.71803 -12.6122 -10.0049
RightLeg  9.08607 -23.6473 2.27757
RightFoot  -1.5722 -0.157946 1.72543
RightToes  0.000481921 0.542163 -0.142578
Spine  12.6954 0.972831 3.52129
Spine1  -5.34101 1.33603 -0.285139
HEad  10.3893 -27.6284 7.23308
LeftShoulder1  7.25726 -12.0431 -40.404
LeftArm  3.76954 5.8273 -36.0973
LeftForeArm  -179.806 -60.2973 -163.544
LeftHand  -0.25398 0.0180481 5.50724
RightShoulder  2.02544 3.7693 21.5645
RightArm  -22.6026 3.49443 30.6212
RightForeArm  146.945 73.9998 136.334
RightHand  -0.0345458 -5.4398 0.798444
LeftUpLeg  -8.01096 2.68726 2.42845
LeftLeg  1.23058 1.26691 -2.88363
LeftFoot  6.41871 0.241869 -1.79864
LeftToes  1.06247e-005 4.65869e-005 -8.65511e-006
